<svg xmlns="http://www.w3.org/2000/svg" xmlns:xlink="http://www.w3.org/1999/xlink" viewBox="0 0 48 48"><path d="M15.638672 6C12.527135 6 9.8339356 8.2268231 9.2519531 11.283203L7.9726562 18L6.5 18 A 1.50015 1.50015 0 0 0 5.0273438 19.78125L8.2519531 36.716797C8.8350684 39.772321 11.527135 42 14.638672 42L33.361328 42C36.472865 42 39.166064 39.773177 39.748047 36.716797L42.972656 19.78125 A 1.50015 1.50015 0 0 0 41.5 18L40.027344 18L38.748047 11.283203C38.166064 8.2268231 35.472865 6 32.361328 6L15.638672 6 z M 15.638672 9L32.361328 9C34.051791 9 35.484764 10.18413 35.800781 11.84375 A 1.50015 1.50015 0 0 0 35.800781 11.845703L36.972656 18L11.027344 18L12.199219 11.845703 A 1.50015 1.50015 0 0 0 12.199219 11.84375C12.515236 10.184177 13.948209 9 15.638672 9 z M 8.3125 21L8.9667969 21 A 1.50015 1.50015 0 0 0 9.453125 21L38.550781 21 A 1.50015 1.50015 0 0 0 39.03125 21L39.6875 21L36.800781 36.15625C36.484764 37.81587 35.051791 39 33.361328 39L14.638672 39C12.948808 39 11.516781 37.8158 11.199219 36.15625L11.199219 36.154297L8.3125 21 z M 15.458984 23.978516 A 1.50015 1.50015 0 0 0 14.009766 25.666016L15.009766 34.666016 A 1.50015 1.50015 0 1 0 17.990234 34.333984L16.990234 25.333984 A 1.50015 1.50015 0 0 0 15.458984 23.978516 z M 21.476562 23.978516 A 1.50015 1.50015 0 0 0 20 25.5L20 34.5 A 1.50015 1.50015 0 1 0 23 34.5L23 25.5 A 1.50015 1.50015 0 0 0 21.476562 23.978516 z M 26.476562 23.978516 A 1.50015 1.50015 0 0 0 25 25.5L25 34.5 A 1.50015 1.50015 0 1 0 28 34.5L28 25.5 A 1.50015 1.50015 0 0 0 26.476562 23.978516 z M 32.496094 23.978516 A 1.50015 1.50015 0 0 0 31.009766 25.333984L30.009766 34.333984 A 1.50015 1.50015 0 1 0 32.990234 34.666016L33.990234 25.666016 A 1.50015 1.50015 0 0 0 32.496094 23.978516 z"/></svg>