<svg xmlns="http://www.w3.org/2000/svg" xmlns:xlink="http://www.w3.org/1999/xlink" viewBox="0 0 50 50"><path d="M44.527344 34.75C43.449219 37.144531 42.929688 38.214844 41.542969 40.328125C39.601563 43.28125 36.863281 46.96875 33.480469 46.992188C30.46875 47.019531 29.691406 45.027344 25.601563 45.0625C21.515625 45.082031 20.664063 47.03125 17.648438 47C14.261719 46.96875 11.671875 43.648438 9.730469 40.699219C4.300781 32.429688 3.726563 22.734375 7.082031 17.578125C9.457031 13.921875 13.210938 11.773438 16.738281 11.773438C20.332031 11.773438 22.589844 13.746094 25.558594 13.746094C28.441406 13.746094 30.195313 11.769531 34.351563 11.769531C37.492188 11.769531 40.8125 13.480469 43.1875 16.433594C35.421875 20.691406 36.683594 31.78125 44.527344 34.75 Z M 31.195313 8.46875C32.707031 6.527344 33.855469 3.789063 33.4375 1C30.972656 1.167969 28.089844 2.742188 26.40625 4.78125C24.878906 6.640625 23.613281 9.398438 24.105469 12.066406C26.796875 12.152344 29.582031 10.546875 31.195313 8.46875Z"/></svg>