<svg xmlns="http://www.w3.org/2000/svg" xmlns:xlink="http://www.w3.org/1999/xlink" viewBox="0 0 128 128"><path fill="#444b54" d="M99,0.8C83.8,0.8,71.5,13,71,28.7c-0.4,14.5,13.5,33.6,21.8,43.6c1.5,1.8,3.8,2.9,6.2,2.9s4.6-1.1,6.2-2.9c8.3-10.1,22.3-29.1,21.8-43.6C126.5,13,114.2,0.8,99,0.8z"/><path fill="#fff" d="M99 18.8A10 10 0 1 0 99 38.8A10 10 0 1 0 99 18.8Z"/><path fill="#444b54" d="M19,79.9c-9.8,0-17.7,7.9-18,17.9c-0.3,9.1,8.3,20.8,13.4,27c1.1,1.4,2.8,2.2,4.6,2.2s3.5-0.8,4.6-2.2c5.1-6.2,13.7-17.9,13.4-27C36.7,87.8,28.8,79.9,19,79.9z"/><path fill="#fff" d="M19 91.9A6 6 0 1 0 19 103.9A6 6 0 1 0 19 91.9Z"/><g><path fill="#71c2ff" d="M76.8,127H36c-1.7,0-3-1.3-3-3s1.3-3,3-3h40.8c1.2,0,2.2-0.6,2.7-1.7s0.4-2.2-0.3-3.2L54.1,83.5c-2.1-2.7-2.5-6.4-0.9-9.5c1.5-3.1,4.6-5,8.1-5H79c1.7,0,3,1.3,3,3s-1.3,3-3,3H61.2c-1.2,0-2.2,0.6-2.7,1.7s-0.4,2.2,0.3,3.2l25.1,32.7c2.1,2.7,2.5,6.4,0.9,9.5C83.4,125.1,80.3,127,76.8,127z"/></g></svg>