<svg xmlns="http://www.w3.org/2000/svg" xmlns:xlink="http://www.w3.org/1999/xlink" viewBox="0 0 48 48"><path d="M9.4765625 4.9785156 A 1.50015 1.50015 0 0 0 8 6.5L8 8L6.5 8 A 1.50015 1.50015 0 1 0 6.5 11L8 11L8 12.5 A 1.50015 1.50015 0 1 0 11 12.5L11 11L12.5 11 A 1.50015 1.50015 0 1 0 12.5 8L11 8L11 6.5 A 1.50015 1.50015 0 0 0 9.4765625 4.9785156 z M 33.476562 8.9785156 A 1.50015 1.50015 0 0 0 32 10.5L32 12L30.5 12 A 1.50015 1.50015 0 1 0 30.5 15L32 15L32 16.5 A 1.50015 1.50015 0 1 0 35 16.5L35 15L36.5 15 A 1.50015 1.50015 0 1 0 36.5 12L35 12L35 10.5 A 1.50015 1.50015 0 0 0 33.476562 8.9785156 z M 17.541016 14.048828C16.386152 14.048828 15.229854 14.484989 14.357422 15.357422C12.612557 17.102287 12.612557 19.977791 14.357422 21.722656L16.6875 24.050781L16.693359 24.058594 A 1.50015 1.50015 0 0 0 17.035156 24.400391L35.269531 42.632812C37.014641 44.376433 39.887704 44.376433 41.632812 42.632812C43.377679 40.887948 43.377679 38.012443 41.632812 36.267578L23.355469 17.992188 A 1.50015 1.50015 0 0 0 23.347656 17.982422 A 1.50015 1.50015 0 0 0 23.007812 17.642578L20.722656 15.357422C19.850224 14.484989 18.695879 14.048828 17.541016 14.048828 z M 17.541016 17.03125C17.921652 17.03125 18.301996 17.180901 18.601562 17.480469L20.007812 18.886719L17.914062 21.035156L16.480469 19.601562C15.881334 19.002429 15.881334 18.079604 16.480469 17.480469C16.780036 17.180901 17.160379 17.03125 17.541016 17.03125 z M 22.128906 21.007812L39.511719 38.390625C40.110854 38.98976 40.110854 39.912584 39.511719 40.511719C38.913296 41.109631 37.989556 41.108698 37.390625 40.511719L37.388672 40.511719L20.035156 23.15625L22.128906 21.007812 z M 13.476562 29.978516 A 1.50015 1.50015 0 0 0 12 31.5L12 33L10.5 33 A 1.50015 1.50015 0 1 0 10.5 36L12 36L12 37.5 A 1.50015 1.50015 0 1 0 15 37.5L15 36L16.5 36 A 1.50015 1.50015 0 1 0 16.5 33L15 33L15 31.5 A 1.50015 1.50015 0 0 0 13.476562 29.978516 z"/></svg>