<svg xmlns="http://www.w3.org/2000/svg" xmlns:xlink="http://www.w3.org/1999/xlink" viewBox="0 0 30 30"><path d="M4 5C2.895 5 2 5.895 2 7L2 23C2 24.105 2.895 25 4 25L26 25C27.105 25 28 24.105 28 23L28 7C28 5.895 27.105 5 26 5L4 5 z M 11.599609 9.4355469C13.172609 9.4355469 14.199219 10.515781 14.199219 12.175781C14.199219 13.828781 13.172609 14.916016 11.599609 14.916016C10.035609 14.916016 9 13.828781 9 12.175781C9 10.522781 10.028609 9.4355469 11.599609 9.4355469 z M 17.255859 9.7011719L19.699219 9.7011719L15.652344 15.289062L12.818359 20.298828L10.365234 20.298828L14.347656 14.738281L17.255859 9.7011719 z M 11.599609 11.015625C11.151609 11.015625 10.880859 11.442922 10.880859 12.169922C10.880859 12.889922 11.151609 13.322266 11.599609 13.322266C12.040609 13.322266 12.3125 12.888922 12.3125 12.169922C12.3125 11.435922 12.055609 11.015625 11.599609 11.015625 z M 18.408203 15.083984C19.972203 15.083984 21 16.164406 21 17.816406C21 19.477406 19.972203 20.5625 18.408203 20.5625C16.844203 20.5625 15.816406 19.476406 15.816406 17.816406C15.816406 16.164406 16.844203 15.083984 18.408203 15.083984 z M 18.408203 16.664062C17.960203 16.664062 17.6875 17.089406 17.6875 17.816406C17.6875 18.536406 17.960203 18.970703 18.408203 18.970703C18.849203 18.970703 19.119141 18.536406 19.119141 17.816406C19.119141 17.081406 18.855203 16.664062 18.408203 16.664062 z"/></svg>